<svg xmlns="http://www.w3.org/2000/svg" width="40" height="40" viewBox="0 0 240 240" fill="none"><path fill="#c92a2a" d="M192.959 178.722H48.041c-4.994 0-9.041-4.036-9.041-9.017V70.017C39 65.037 43.047 61 48.04 61h144.92c4.994 0 9.041 4.036 9.041 9.017v99.688c0 4.981-4.047 9.017-9.041 9.017"></path><path fill="#000" fill-rule="evenodd" d="M183.904 178.722h9.055c4.994 0 9.041-4.036 9.041-9.017V70.017c0-4.98-4.047-9.017-9.041-9.017h-9.055c4.994 0 9.04 4.036 9.04 9.017v99.688c0 4.981-4.046 9.017-9.04 9.017Z" clip-rule="evenodd" opacity="0.1"></path><path fill="#000" d="M39 74.995h163v22.227H39V74.995Z"></path><g id="kawaii-face" transform="translate(93.33 121.1) scale(0.8231818181818181)"><defs><path d="M1.45656876,3.14684877 C1.45656876,3.14684877 1.45656876,3.14684877 1.45656876,3.14684877 L0,3.14685315 C0,2.31818182 0.346033696,1.50734266 0.949429952,0.922027972 C1.55390756,0.335664336 2.38979521,0 3.2440659,0 L25.9525272,0 C26.8067979,0 27.6416041,0.335664336 28.2460818,0.922027972 C28.8505594,1.50734266 29.1965931,2.31818182 29.1965931,3.14685315 C29.1890236,5.85734266 28.240675,8.44825175 26.7127199,10.6814685 C25.1771954,12.9104895 23.0317865,14.8122378 20.4040931,16.0227273 C18.6544603,16.8251748 16.6809868,17.3087413 14.5982965,17.3076923 C11.4666916,17.3076923 8.61299495,16.2241259 6.33025392,14.5951049 C4.0399434,12.9587413 2.264358,10.779021 1.16245695,8.33811189 C0.431460764,6.70909091 0.0010813553,4.95314685 0,3.14685315 L1.45656896,3.14685315 Z" id="kawaii-face__path-1"></path></defs><g id="kawaii-face__mouth" transform="translate(18.000000, 16.000000)"><g id="kawaii-face__mouth__joy" transform="translate(0.000000, 1.000000)"><mask id="kawaii-face__mask-2-undefined" fill="white"><use xlink:href="#kawaii-face__path-1"></use></mask><use id="Combined-Shape" fill="#000000" xlink:href="#kawaii-face__path-1"></use><path d="M9.59865983,9.95467851 C9.59865983,9.95467851 9.59865983,9.95467851 9.59865983,9.95467851 L9,9.95467851 C9,9.66740582 9.14222222,9.38631493 9.39022222,9.18340586 C9.63866667,8.98013316 10.3333333,8 15,8 C19.6666667,8 20.3608889,8.98013316 20.6093333,9.18340586 C20.8577778,9.38631493 21,9.66740582 21,9.95467851 C20.9968889,10.8943148 20.6071111,11.7924965 19.9791111,12.5666783 C19.348,13.3394055 18.4662222,13.9986781 17.3862222,14.4183144 C16.6671111,14.6964962 15.856,14.8641326 15,14.8637689 C13.7128889,14.8637689 12.54,14.4881326 11.6017778,13.9234054 C10.6604444,13.3561327 9.93066667,12.6004964 9.47777778,11.7543147 C9.17733333,11.1895875 9.00044444,10.5808603 9,9.95467851 L9.59865983,9.95467851 Z" id="kawaii-face__tongue" fill="#E74144" mask="url(#kawaii-face__mask-2-undefined" transform="translate(15.000000, 11.431885) scale(1, -1)
            translate(-15.000000, -11.431885)"></path></g></g><g id="kawaii-face__blush" transform="translate(0.000000, 15.000000)" fill="#000000" opacity="0.2"><circle cx="3" cy="3" r="3"></circle><circle cx="63" cy="3" r="3"></circle></g><g id="kawaii-face__eyes" transform="translate(2.000000, 0.000000)" fill="#000000"><g id="kawaii-face__eyes__heart" transform="translate(0.000000, 2.000000)" fill-rule="nonzero"><path d="M11.980165,2.98190092 C11.8050001,1.25390423 10.4403753,0.000206846623 8.73257491,0.000206846623 C7.5948106,0.000206846623 6.55305237,0.548970938 5.96686143,1.42848278 C5.38597852,0.537594374 4.38691529,0 3.26738291,0 C1.55981331,0 0.194957712,1.25369738 0.0200235653,2.98169407 C0.00617653522,3.05802048 -0.0505962882,3.45971662 0.12203002,4.11479988 C0.370814995,5.05967525 0.945466744,5.91912297 1.78344285,6.59964836 C1.78344285,6.59964836 4.36682268,10 5.96409202,10 C7.56136137,10 10.216515,6.59985521 10.216515,6.59985521 C11.0544911,5.91912297 11.6291428,5.0598821 11.8779278,4.11479988 C12.0505541,3.45992347 11.9937813,3.05822732 11.980165,2.98190092 Z" id="Shape"></path><path d="M62.980165,2.98190092 C62.8050001,1.25390423 61.4403753,0.000206846623 59.7325749,0.000206846623 C58.5948106,0.000206846623 57.5530524,0.548970938 56.9668614,1.42848278 C56.3859785,0.537594374 55.3869153,0 54.2673829,0 C52.5598133,0 51.1949577,1.25369738 51.0200236,2.98169407 C51.0061765,3.05802048 50.9494037,3.45971662 51.12203,4.11479988 C51.370815,5.05967525 51.9454667,5.91912297 52.7834428,6.59964836 C52.7834428,6.59964836 55.3668227,10 56.964092,10 C58.5613614,10 61.216515,6.59985521 61.216515,6.59985521 C62.0544911,5.91912297 62.6291428,5.0598821 62.8779278,4.11479988 C63.0505541,3.45992347 62.9937813,3.05822732 62.980165,2.98190092 Z" id="Shape"></path></g></g></g></svg>